/* XPM */
static char * 2_xpm[] = {
"100 100 2 1",
" 	c #FFFFFF",
".	c #000000",
"                                                                                                    ",
"                                                                                                    ",
"                                                                                                    ",
"                                                                                                    ",
"                                                                                                    ",
"                                                                                                    ",
"                                                                                                    ",
"                                                                                                    ",
"                                                                                                    ",
"                                                                                                    ",
"                                                                                                    ",
"                                                                                                    ",
"                                                                                                    ",
"                                                                                                    ",
"                                                                                                    ",
"                                                                                                    ",
"                                                                                                    ",
"                                                                                                    ",
"                                                                                                    ",
"                                                                                                    ",
"                                                                                                    ",
"                                                                                                    ",
"                                                                                                    ",
"                                                                                                    ",
"                                                                                                    ",
"                                                                                                    ",
"                                                                                                    ",
"                            .........................................                               ",
"                            .........................................                               ",
"                            .........................................                               ",
"                            .........................................                               ",
"                            .........................................                               ",
"                            .........................................                               ",
"                            .........................................                               ",
"                            .........................................                               ",
"                            .........................................                               ",
"                            .........................................                               ",
"                            .........................................                               ",
"                            .........................................                               ",
"                            .........................................                               ",
"                            .........................................                               ",
"                            .........................................                               ",
"                            .........................................                               ",
"                            .........................................                               ",
"                            .........................................                               ",
"                            .........................................                               ",
"                            .........................................                               ",
"                            .........................................                               ",
"                            .........................................                               ",
"                            .........................................                               ",
"                            .........................................                               ",
"                            .........................................                               ",
"                            .........................................                               ",
"                            .........................................                               ",
"                            .........................................                               ",
"                            .........................................                               ",
"                            .........................................                               ",
"                            .........................................                               ",
"                            .........................................                               ",
"                            .........................................                               ",
"                            .........................................                               ",
"                            .........................................                               ",
"                            .........................................                               ",
"                            .........................................                               ",
"                            .........................................                               ",
"                            .........................................                               ",
"                            .........................................                               ",
"                            .........................................                               ",
"                            .........................................                               ",
"                            .........................................                               ",
"                            .........................................                               ",
"                            .........................................                               ",
"                            .........................................                               ",
"                            .........................................                               ",
"                            .........................................                               ",
"                                                                                                    ",
"                                                                                                    ",
"                                                                                                    ",
"                                                                                                    ",
"                                                                                                    ",
"                                                                                                    ",
"                                                                                                    ",
"                                                                                                    ",
"                                                                                                    ",
"                                                                                                    ",
"                                                                                                    ",
"                                                                                                    ",
"                                                                                                    ",
"                                                                                                    ",
"                                                                                                    ",
"                                                                                                    ",
"                                                                                                    ",
"                                                                                                    ",
"                                                                                                    ",
"                                                                                                    ",
"                                                                                                    ",
"                                                                                                    ",
"                                                                                                    ",
"                                                                                                    ",
"                                                                                                    "};
