/* XPM */
static char * craters_xpm[] = {
"60 60 62 1",
" 	c #CCCCCC",
".	c #CBCBCB",
"+	c #C9C9C9",
"@	c #CACACA",
"#	c #C5C5C5",
"$	c #C1C1C1",
"%	c #C2C2C2",
"&	c #C7C7C7",
"*	c #C8C8C8",
"=	c #BABABA",
"-	c #B6B6B6",
";	c #B4B4B4",
">	c #B8B8B8",
",	c #BCBCBC",
"'	c #C3C3C3",
")	c #ADADAD",
"!	c #A4A4A4",
"~	c #A0A0A0",
"{	c #A7A7A7",
"]	c #B1B1B1",
"^	c #BDBDBD",
"/	c #BFBFBF",
"(	c #B3B3B3",
"_	c #A1A1A1",
":	c #929292",
"<	c #8B8B8B",
"[	c #979797",
"}	c #A8A8A8",
"|	c #B9B9B9",
"1	c #BEBEBE",
"2	c #AFAFAF",
"3	c #9B9B9B",
"4	c #868686",
"5	c #7E7E7E",
"6	c #8D8D8D",
"7	c #A3A3A3",
"8	c #B5B5B5",
"9	c #BBBBBB",
"0	c #ABABAB",
"a	c #A2A2A2",
"b	c #989898",
"c	c #C0C0C0",
"d	c #B7B7B7",
"e	c #888888",
"f	c #ACACAC",
"g	c #A5A5A5",
"h	c #C6C6C6",
"i	c #9E9E9E",
"j	c #A9A9A9",
"k	c #959595",
"l	c #848484",
"m	c #9A9A9A",
"n	c #8C8C8C",
"o	c #AAAAAA",
"p	c #9C9C9C",
"q	c #939393",
"r	c #8E8E8E",
"s	c #828282",
"t	c #C4C4C4",
"u	c #B2B2B2",
"v	c #8F8F8F",
"w	c #808080",
"                                                            ",
"                                .++@.                       ",
"                              .+#$$%&@                      ",
"                             .*%=-;>,#@                     ",
"                             @'>)!~{]^&.                    ",
"                            .*/(_:<[}|%@                    ",
"                            .*12345678%@                    ",
"                            .*/(_:<[}|%@                    ",
"                             @'>)!~{]^&.                    ",
"                             .*%=-;>,#@                     ",
"               .@@@.          .+#$$%&@                      ",
"              @&%%%&@           .++@.                       ",
"             @#^|8|^#@                                      ",
"            .&,]}7}],&.                  ...                ",
"            @%>{[6[{>%@                .@***@.              ",
"            +$;~<5<~;$+               .*'/1/'*.             ",
"            +$-!:4:!-$+               +%>(2(>%+             ",
"            .#=)_3_)=#.              .#=)_3_)=#.            ",
"             +%>(2(>%+               +$-!:4:!-$+            ",
"             .*'/1/'*.               +$;~<5<~;$+            ",
"              .@***@.                @%>{[6[{>%@            ",
"                ...                  .&,]}7}],&.            ",
"                                      @#^|8|^#@             ",
"                                       @&%%%&@      ....    ",
"                                        .@@@.     .@&##&@.  ",
"                                                 .*'1991'*. ",
"      .@@.                                       @'|]00]|'@ ",
"    .*#%%#*.                                    .&1]abba]1&.",
"   .&c9dd9c&.                                   .#90beeb09#.",
"   +$-fggf-$+     ...                           .#90beeb09#.",
"  .h,2i::i2,h.  .+###+.                         .&1]abba]1&.",
"  .#=jkllkj=#. .hc,|,ch.            ..           @'|]00]|'@ ",
"  .#9fmnnmf9#. */;)j);/*          .+**+.         .*'1991'*. ",
"  .*/({ii{(/*.@'|opqpo|'@        @h$11$h@         .@&##&@.  ",
"   @#^8]]8^#@ +$8arsra8$+       @#^8]]8^#@          ....    ",
"    @h$11$h@  +$8arsra8$+      .*/({ii{(/*.                 ",
"     .+**+.   @'|opqpo|'@      .#9fmnnmf9#.                 ",
"       ..      */;)j);/*       .#=jkllkj=#.                 ",
"               .hc,|,ch.       .h,2i::i2,h.                 ",
"                .+###+.         +$-fggf-$+                  ",
"                  ...           .&c9dd9c&.                  ",
"                                 .*#%%#*.        ...        ",
"                                   .@@.        .@***@.      ",
"                   ....                       .&'/1ct+.     ",
"                 .@&##&@.                    .&cdu2;='+     ",
"                .*'1991'*.                   @'do~p72,h.    ",
"                @'|]00]|'@                  .*/u~vek{>%@    ",
"               .&1]abba]1&.                 .*12pewv!-%@    ",
"               .#90beeb09#.                 .*c;7kvmo|'@    ",
"               .#90beeb09#.                  @t=2{!o(1*     ",
"               .&1]abba]1&.                  .+',>-|1h@     ",
"                @'|]00]|'@                    .+h%%'*@      ",
"                .*'1991'*.                      .@@@        ",
"                 .@&##&@.                                   ",
"                   ....                                     ",
"                                                            ",
"                                                            ",
"                                                            ",
"                                                            ",
"                                                            "};
